<svg style="position: absolute; width: 0; height: 0; overflow: hidden;" version="1.1" xmlns="http://www.w3.org/2000/svg" xmlns:xlink="http://www.w3.org/1999/xlink">
<defs>
<symbol id="icon-bell-o" viewBox="0 0 32 32">
<path d="M16.286 30.286c0-0.161-0.125-0.286-0.286-0.286-1.411 0-2.571-1.161-2.571-2.571 0-0.161-0.125-0.286-0.286-0.286s-0.286 0.125-0.286 0.286c0 1.732 1.411 3.143 3.143 3.143 0.161 0 0.286-0.125 0.286-0.286zM4.393 25.143h23.214c-3.196-3.607-4.75-8.5-4.75-14.857 0-2.304-2.179-5.714-6.857-5.714s-6.857 3.411-6.857 5.714c0 6.357-1.554 11.25-4.75 14.857zM30.857 25.143c0 1.25-1.036 2.286-2.286 2.286h-8c0 2.518-2.054 4.571-4.571 4.571s-4.571-2.054-4.571-4.571h-8c-1.25 0-2.286-1.036-2.286-2.286 2.643-2.232 5.714-6.232 5.714-14.857 0-3.429 2.839-7.179 7.571-7.875-0.089-0.214-0.143-0.446-0.143-0.696 0-0.946 0.768-1.714 1.714-1.714s1.714 0.768 1.714 1.714c0 0.25-0.054 0.482-0.143 0.696 4.732 0.696 7.571 4.446 7.571 7.875 0 8.625 3.071 12.625 5.714 14.857z"></path>
</symbol>
<symbol id="user-icon" viewBox="0 0 32 32">
<path   d="M16 17.131c-4.725 0-8.569-3.844-8.569-8.569s3.844-8.563 8.569-8.563c4.725 0 8.569 3.844 8.569 8.569s-3.844 8.563-8.569 8.563zM16 1.275c-4.019 0-7.287 3.269-7.287 7.287s3.269 7.294 7.287 7.294c4.019 0 7.288-3.269 7.288-7.287s-3.269-7.294-7.288-7.294z"></path>
<path   d="M30.869 32c-0.35 0-0.637-0.288-0.637-0.637 0-7.844-6.381-14.225-14.225-14.225s-14.225 6.381-14.225 14.225c0 0.35-0.288 0.638-0.637 0.638s-0.637-0.288-0.637-0.637c0-4.144 1.613-8.037 4.544-10.963s6.825-4.544 10.963-4.544 8.038 1.613 10.962 4.544 4.544 6.825 4.544 10.962c-0.012 0.35-0.3 0.638-0.65 0.638z"></path>
</symbol>
<symbol id="icon-folder" viewBox="0 0 30 28">
<path d="M27.828 14.547c0-0.438-0.484-0.547-0.828-0.547h-17c-0.828 0-1.922 0.516-2.453 1.156l-4.594 5.672c-0.141 0.187-0.281 0.391-0.281 0.625 0 0.438 0.484 0.547 0.828 0.547h17c0.828 0 1.922-0.516 2.453-1.172l4.594-5.672c0.141-0.172 0.281-0.375 0.281-0.609zM10 12h12v-2.5c0-0.828-0.672-1.5-1.5-1.5h-9c-0.828 0-1.5-0.672-1.5-1.5v-1c0-0.828-0.672-1.5-1.5-1.5h-5c-0.828 0-1.5 0.672-1.5 1.5v13.328l4-4.922c0.906-1.109 2.578-1.906 4-1.906zM29.828 14.547c0 0.688-0.297 1.344-0.719 1.875l-4.609 5.672c-0.891 1.094-2.594 1.906-4 1.906h-17c-1.922 0-3.5-1.578-3.5-3.5v-15c0-1.922 1.578-3.5 3.5-3.5h5c1.922 0 3.5 1.578 3.5 3.5v0.5h8.5c1.922 0 3.5 1.578 3.5 3.5v2.5h3c1.062 0 2.125 0.484 2.594 1.484 0.156 0.328 0.234 0.688 0.234 1.062z"></path>
</symbol>
<symbol id="icon-pictures" viewBox="0 0 33 32">
<path d="M1.5 28h26c0.827 0 1.5-0.673 1.5-1.5v-25c0-0.827-0.673-1.5-1.5-1.5h-26c-0.827 0-1.5 0.673-1.5 1.5v25c0 0.827 0.673 1.5 1.5 1.5zM1 1.5c0-0.276 0.225-0.5 0.5-0.5h26c0.275 0 0.5 0.224 0.5 0.5v25c0 0.276-0.225 0.5-0.5 0.5h-26c-0.275 0-0.5-0.224-0.5-0.5v-25zM18 11c1.103 0 2-0.897 2-2s-0.897-2-2-2-2 0.897-2 2 0.897 2 2 2zM18 8c0.552 0 1 0.449 1 1s-0.448 1-1 1-1-0.449-1-1 0.448-1 1-1zM3.5 23h22c0.276 0 0.5-0.224 0.5-0.5v-19c0-0.276-0.224-0.5-0.5-0.5h-22c-0.276 0-0.5 0.224-0.5 0.5v19c0 0.276 0.224 0.5 0.5 0.5zM4 22v-4.638c0.022-0.016 0.047-0.025 0.067-0.045l5.116-5.116c0.26-0.26 0.712-0.259 0.972 0l7.521 7.521c0.098 0.098 0.226 0.146 0.354 0.146 0.124 0 0.248-0.046 0.345-0.138l3.866-3.672c0.13-0.13 0.303-0.202 0.486-0.202 0.184 0 0.355 0.072 0.464 0.178l1.809 2.059v3.907h-21zM25 4v12.581l-1.081-1.228c-0.317-0.319-0.741-0.495-1.191-0.495-0.001 0-0.001 0-0.001 0-0.451 0-0.875 0.176-1.185 0.486l-3.504 3.328-7.176-7.177c-0.639-0.638-1.749-0.637-2.386 0l-4.476 4.476v-11.971h21zM4.5 29.083c-0.276 0-0.5 0.224-0.5 0.5v0.917c0 0.827 0.673 1.5 1.5 1.5h26c0.827 0 1.5-0.673 1.5-1.5v-26c0-0.827-0.673-1.5-1.5-1.5h-0.917c-0.276 0-0.5 0.224-0.5 0.5s0.224 0.5 0.5 0.5h0.917c0.275 0 0.5 0.224 0.5 0.5v26c0 0.276-0.225 0.5-0.5 0.5h-26c-0.275 0-0.5-0.224-0.5-0.5v-0.917c0-0.276-0.224-0.5-0.5-0.5z"></path>
</symbol>
<symbol id="icon-trash" viewBox="0 0 32 32">
<path d="M23 7h4v1h-2v18.993c0 1.671-1.343 3.007-3 3.007h-11c-1.666 0-3-1.346-3-3.007v-18.993h-2v-1h6v-1.995c0-1.111 0.894-2.005 1.997-2.005h5.005c1.102 0 1.997 0.898 1.997 2.005v1.995h2zM9 8v19.005c0 1.102 0.893 1.995 1.992 1.995h11.016c1.1 0 1.992-0.902 1.992-1.995v-19.005h-15zM12 10v17h1v-17h-1zM16 10v17h1v-17h-1zM20 10v17h1v-17h-1zM14.003 4c-0.554 0-1.003 0.443-1.003 0.999v2.001h7v-2.001c0-0.552-0.438-0.999-1.003-0.999h-4.994z"></path>
</symbol>
<symbol id="icon-plus" viewBox="0 0 24 24">
<path d="M5 13h6v6c0 0.552 0.448 1 1 1s1-0.448 1-1v-6h6c0.552 0 1-0.448 1-1s-0.448-1-1-1h-6v-6c0-0.552-0.448-1-1-1s-1 0.448-1 1v6h-6c-0.552 0-1 0.448-1 1s0.448 1 1 1z"></path>
</symbol>
<symbol id="icon-filter" viewBox="0 0 24 24">
<path d="M19.845 4l-6.609 7.814c-0.147 0.173-0.236 0.399-0.236 0.646v6.922l-2-1v-5.922c0.001-0.227-0.077-0.457-0.236-0.646l-6.609-7.814zM22 2h-20c-0.552 0-1 0.448-1 1 0 0.247 0.089 0.473 0.236 0.646l7.764 9.18v6.174c0 0.389 0.222 0.727 0.553 0.894l4 2c0.494 0.247 1.095 0.047 1.342-0.447 0.072-0.146 0.106-0.301 0.105-0.447v-8.174l7.764-9.18c0.357-0.422 0.304-1.053-0.118-1.409-0.189-0.16-0.419-0.238-0.646-0.237z"></path>
</symbol>
<symbol id="icon-edit" viewBox="0 0 24 24">
<path d="M21.561 5.318l-2.879-2.879c-0.293-0.293-0.677-0.439-1.061-0.439-0.385 0-0.768 0.146-1.061 0.439l-3.56 3.561h-9c-0.552 0-1 0.447-1 1v13c0 0.553 0.448 1 1 1h13c0.552 0 1-0.447 1-1v-9l3.561-3.561c0.293-0.293 0.439-0.677 0.439-1.061s-0.146-0.767-0.439-1.060zM11.5 14.672l-2.172-2.172 6.293-6.293 2.172 2.172-6.293 6.293zM8.939 13.333l1.756 1.728-1.695-0.061-0.061-1.667zM16 19h-11v-11h6l-3.18 3.18c-0.293 0.293-0.478 0.812-0.629 1.289-0.16 0.5-0.191 1.056-0.191 1.47v3.061h3.061c0.414 0 1.108-0.1 1.571-0.29 0.464-0.19 0.896-0.347 1.188-0.64l3.18-3.070v6zM18.5 7.672l-2.172-2.172 1.293-1.293 2.171 2.172-1.292 1.293z"></path>
</symbol>
<symbol id="icon-Search" viewBox="0 0 32 32">
<path d="M14.092 0c-7.77 0-14.092 6.322-14.092 14.092s6.322 14.092 14.092 14.092c7.771 0 14.092-6.322 14.092-14.092s-6.322-14.092-14.092-14.092zM14.092 25.583c-6.336 0-11.491-5.155-11.491-11.491s5.155-11.491 11.491-11.491 11.491 5.155 11.491 11.491-5.155 11.491-11.491 11.491z"></path>
<path d="M31.619 29.779l-7.458-7.458c-0.508-0.508-1.331-0.508-1.839 0s-0.508 1.332 0 1.839l7.458 7.458c0.254 0.254 0.587 0.381 0.92 0.381s0.666-0.127 0.92-0.381c0.508-0.508 0.508-1.332 0-1.839z"></path>
</symbol>
<symbol id="upload" viewBox="0 0 16 16">
<path d="M15 7c-0.553 0-1 0.448-1 1v6h-12v-6c0-0.552-0.447-1-1-1s-1 0.448-1 1v7c0 0.552 0.447 1 1 1h14c0.553 0 1-0.448 1-1v-7c0-0.552-0.447-1-1-1zM7 10c0 0.552 0.447 1 1 1s1-0.448 1-1v-6h3l-4-4-4 4h3v6z"></path>
</symbol>
<symbol id="download" viewBox="0 0 16 16">
<path d="M15 7c-0.553 0-1 0.448-1 1v6h-12v-6c0-0.552-0.447-1-1-1s-1 0.448-1 1v7c0 0.552 0.447 1 1 1h14c0.553 0 1-0.448 1-1v-7c0-0.552-0.447-1-1-1zM9 7v-6.122c0-0.485-0.447-0.878-1-0.878s-1 0.393-1 0.878v6.122h-3l4 4 4-4h-3z"></path>
</symbol>
<symbol id="icon-arrow-left" viewBox="0 0 24 24">
<path d="M17 11h-7.586l2.293-2.293c0.391-0.391 0.391-1.023 0-1.414s-1.023-0.391-1.414 0l-4.707 4.707 4.707 4.707c0.195 0.195 0.451 0.293 0.707 0.293s0.512-0.098 0.707-0.293c0.391-0.391 0.391-1.023 0-1.414l-2.293-2.293h7.586c0.552 0 1-0.448 1-1s-0.448-1-1-1z"></path>
</symbol>
<symbol id="icon-arrow-right" viewBox="0 0 24 24">
<path d="M13.293 7.293c-0.391 0.391-0.391 1.023 0 1.414l2.293 2.293h-7.586c-0.552 0-1 0.448-1 1s0.448 1 1 1h7.586l-2.293 2.293c-0.391 0.391-0.391 1.023 0 1.414 0.195 0.195 0.451 0.293 0.707 0.293s0.512-0.098 0.707-0.293l4.707-4.707-4.707-4.707c-0.391-0.391-1.023-0.391-1.414 0z"></path>
</symbol>
</defs>
</svg>
